<svg width="16" height="16" viewBox="0 0 16 16" fill="currentColor" xmlns="http://www.w3.org/2000/svg">
<path d="M10.2975 3.9564C10.6843 3.9564 10.9979 3.64283 10.9979 3.25603C10.9979 2.86923 10.6843 2.55566 10.2975 2.55566C9.91073 2.55566 9.59717 2.86923 9.59717 3.25603C9.59717 3.64283 9.91073 3.9564 10.2975 3.9564Z"/>
<path d="M3.48917 11.2288C4.3674 12.3981 5.73594 13.2059 7.23949 13.358L7.795 14.3268H7.48308C7.18554 14.3268 6.94434 14.568 6.94434 14.8655C6.94434 15.1631 7.18554 15.4043 7.48308 15.4043H10.298C10.5955 15.4043 10.8367 15.1631 10.8367 14.8655C10.8367 14.568 10.5955 14.3268 10.298 14.3268H9.03706L8.46815 13.3346C11.0228 12.9789 13.0342 10.7461 13.0342 8.10431C13.0342 6.99053 12.6913 5.95645 12.1411 5.14783C12.4779 4.7824 12.7533 4.3238 12.8684 3.79477H13.2499C13.3157 3.79477 13.3788 3.78296 13.4371 3.76134C13.4821 3.85875 13.5287 3.9565 13.5758 4.05526C13.7499 4.42002 13.9305 4.7986 14.0572 5.22502C14.2351 5.8242 14.2501 6.3663 13.9628 6.83744C13.8191 7.0732 13.8936 7.38088 14.1294 7.52465C14.3652 7.66842 14.6728 7.59384 14.8166 7.35808C15.3148 6.54118 15.2313 5.66605 15.0158 4.94036C14.8662 4.43655 14.6236 3.92664 14.4378 3.53594C14.3776 3.40936 14.3233 3.29528 14.2801 3.19799C14.272 3.12928 14.2873 3.07954 14.309 3.04187C14.3378 2.99167 14.3883 2.94651 14.4523 2.91976C14.5163 2.89295 14.575 2.89225 14.6163 2.90434C14.6494 2.91404 14.6948 2.93787 14.7378 3.01547C14.8716 3.25703 15.1759 3.34439 15.4174 3.2106C15.659 3.0768 15.7464 2.77251 15.6126 2.53095C15.2586 1.89195 14.5749 1.78444 14.0662 1.99727C13.7567 2.12679 13.4832 2.38554 13.3548 2.7275C13.3208 2.7208 13.2858 2.71729 13.2499 2.71729H12.8747C12.6139 1.38688 11.4009 0.455514 9.99455 0.561992C9.18018 0.569389 8.39302 0.975435 7.87251 1.62607C7.86278 1.63824 7.85358 1.65082 7.84494 1.66378C7.6138 2.01049 7.35398 2.50832 7.32595 3.14279L4.24326 6.32824L4.03363 6.53781L0.364731 10.3146C0.213889 10.4699 0.170642 10.7004 0.254933 10.8998C0.339224 11.0992 0.534679 11.2288 0.751161 11.2288H3.48917ZM10.0619 1.63752C11.0488 1.55527 11.8489 2.28581 11.8489 3.25561C11.8489 3.79695 11.5365 4.30257 11.0814 4.66665C10.9673 4.75789 10.8952 4.89152 10.8815 5.03693C10.8679 5.18234 10.9138 5.32706 11.0089 5.43795C11.571 6.09378 11.9567 7.04666 11.9567 8.10431C11.9567 10.3927 10.0429 12.3065 7.75446 12.3065C6.71113 12.3065 5.71239 11.898 4.95096 11.229H6.13822L6.1779 11.2288H6.24635C7.71234 11.2288 9.04782 10.0343 9.04782 8.42729C9.04782 6.95723 7.9974 5.6701 6.51461 5.53058L8.24935 3.73801C8.34659 3.63754 8.40095 3.50319 8.40095 3.36336V3.25561C8.40095 2.87585 8.5479 2.55647 8.72824 2.28147C9.06454 1.87165 9.55324 1.63938 10.0172 1.63938C10.0321 1.63938 10.047 1.63876 10.0619 1.63752ZM13.7807 3.34867C13.7804 3.35 13.7802 3.35134 13.78 3.35267L13.7986 3.34469L13.7807 3.34867ZM6.13822 6.70358C5.74957 6.70358 5.33404 6.85758 4.98262 7.1127L4.79833 7.297L2.02561 10.1513H6.16902C7.13274 10.1343 7.86221 9.32253 7.86221 8.42756C7.86221 7.44863 7.04271 6.70358 6.13822 6.70358Z"/>
</svg>
