<svg width="16" height="16" viewBox="0 0 16 16" fill="currentColor" xmlns="http://www.w3.org/2000/svg">
<path d="M11.1779 2.00058C11.1779 1.68798 10.9245 1.43457 10.6119 1.43457C10.2993 1.43457 10.0459 1.68798 10.0459 2.00058V2.33984H5.63055V2.00058C5.63055 1.68798 5.37714 1.43457 5.06454 1.43457C4.75195 1.43457 4.49854 1.68798 4.49854 2.00058V2.33984H4.04586C2.82764 2.33984 1.89502 3.27247 1.89502 4.49068V12.0752C1.89502 13.2934 2.82764 14.226 4.04586 14.226H7.21551C7.52811 14.226 7.78152 13.9726 7.78152 13.66C7.78152 13.3474 7.52811 13.094 7.21551 13.094H4.04586C3.45284 13.094 3.02704 12.6682 3.02704 12.0752V6.75507H12.6492V8.22634C12.6492 8.53894 12.9026 8.79235 13.2152 8.79235C13.5278 8.79235 13.7812 8.53894 13.7812 8.22634V4.49068C13.7812 3.27247 12.8486 2.33984 11.6304 2.33984H11.1779V2.00058ZM4.49854 4.49102V3.47186H4.04586C3.45284 3.47186 3.02704 3.89766 3.02704 4.49068V5.62305H12.6492V4.49068C12.6492 3.89766 12.2234 3.47186 11.6304 3.47186H11.1779V4.49102C11.1779 4.80362 10.9245 5.05703 10.6119 5.05703C10.2993 5.05703 10.0459 4.80362 10.0459 4.49102V3.47186H5.63055V4.49102C5.63055 4.80362 5.37714 5.05703 5.06454 5.05703C4.75195 5.05703 4.49854 4.80362 4.49854 4.49102Z"/>
<path d="M15.5513 10.4265C15.7657 10.199 15.7552 9.8408 15.5277 9.62636C15.3003 9.41191 14.9421 9.42245 14.7276 9.64989L11.4208 13.1572L9.56686 11.0252C9.36174 10.7893 9.00423 10.7644 8.76834 10.9695C8.53246 11.1746 8.50751 11.5321 8.71263 11.768L10.9767 14.3716C11.0816 14.4923 11.2326 14.5629 11.3924 14.5661C11.5522 14.5694 11.7059 14.5048 11.8156 14.3885L15.5513 10.4265Z"/>
</svg>
