<svg width="16" height="16" viewBox="0 0 16 16" fill="currentColor" xmlns="http://www.w3.org/2000/svg">
<path fill-rule="evenodd" clip-rule="evenodd" d="M8 15C11.866 15 15 11.866 15 8C15 4.13401 11.866 1 8 1C4.13401 1 1 4.13401 1 8C1 11.866 4.13401 15 8 15ZM8 16C12.4183 16 16 12.4183 16 8C16 3.58172 12.4183 0 8 0C3.58172 0 0 3.58172 0 8C0 12.4183 3.58172 16 8 16Z"/>
<path fill-rule="evenodd" clip-rule="evenodd" d="M7.29293 8.00004L5.14648 5.85359L5.85359 5.14648L8.00004 7.29293L10.1465 5.14648L10.8536 5.85359L8.70714 8.00004L10.8536 10.1465L10.1465 10.8536L8.00004 8.70714L5.85359 10.8536L5.14648 10.1465L7.29293 8.00004Z"/>
</svg>
