<svg width="16" height="16" viewBox="0 0 16 16" fill="currentColor" xmlns="http://www.w3.org/2000/svg">
<path d="M8.51121 0.908623C8.62935 1.00267 8.69866 1.14508 8.69979 1.29608L8.79979 14.6961C8.80094 14.8496 8.73152 14.9951 8.6115 15.0908C8.49149 15.1864 8.33417 15.2217 8.18479 15.1864L2.68479 13.8864C2.45917 13.8331 2.2998 13.6316 2.2998 13.3998V2.49981C2.2998 2.26546 2.46257 2.06255 2.69134 2.01172L8.09134 0.811716C8.23875 0.778958 8.39307 0.814575 8.51121 0.908623ZM3.2998 2.90089V13.0042L7.79507 14.0667L7.70443 1.92209L3.2998 2.90089Z"/>
<path d="M9.8998 2.49981C9.8998 2.22367 10.1237 1.99981 10.3998 1.99981H12.9998C13.2759 1.99981 13.4998 2.22367 13.4998 2.49981V13.4998C13.4998 13.776 13.2759 13.9998 12.9998 13.9998H10.3998C10.1237 13.9998 9.8998 13.776 9.8998 13.4998C9.8998 13.2237 10.1237 12.9998 10.3998 12.9998H12.4998V2.99981H10.3998C10.1237 2.99981 9.8998 2.77595 9.8998 2.49981Z"/>
<path d="M6.65938 8.0001C6.65938 8.35909 6.36836 8.6501 6.00938 8.6501C5.65039 8.6501 5.35938 8.35909 5.35938 8.0001C5.35938 7.64112 5.65039 7.3501 6.00938 7.3501C6.36836 7.3501 6.65938 7.64112 6.65938 8.0001Z"/>
</svg>
