<svg width="16" height="16" viewBox="0 0 16 16" fill="currentColor" xmlns="http://www.w3.org/2000/svg">
<path d="M8 15C11.866 15 15 11.866 15 8C15 4.13401 11.866 1 8 1C4.13401 1 1 4.13401 1 8C1 11.866 4.13401 15 8 15ZM8 16C12.4183 16 16 12.4183 16 8C16 3.58172 12.4183 0 8 0C3.58172 0 0 3.58172 0 8C0 12.4183 3.58172 16 8 16Z"/>
<path d="M5.02338 4.25299L5.00989 5.2529L9.40715 5.31218L4.47452 10.2448L5.18163 10.9519L10.1143 6.01929L10.1735 10.4165L11.1734 10.4031L11.0916 4.3348L5.02338 4.25299Z"/>
</svg>
