<svg width="470" height="470" viewBox="0 0 470 470" fill="none" xmlns="http://www.w3.org/2000/svg">
<g clip-path="url(#clip0_3648_2898)">
<g opacity="0.6">
<path d="M331.073 184.519C331.073 184.519 341.988 171.993 352.435 160.922C358.465 154.476 367.093 148.395 369.432 147.2C371.771 146.004 373.85 144.497 376.812 142.886C379.723 141.222 389.859 135.193 396.252 128.384C402.645 121.575 411.221 115.858 414.756 115.962C416.835 117.313 421.616 116.845 423.799 116.533C424.423 116.429 424.943 115.91 425.047 115.234C425.099 114.662 425.203 113.987 425.307 113.363C425.411 112.479 428.218 112.375 430.037 112.375C431.076 112.375 432.064 112.011 432.792 111.336L433.987 110.192C435.598 108.737 435.702 106.242 434.247 104.631L429.361 99.2771C428.166 97.9777 426.242 97.6139 424.631 98.4455L409.142 106.606C409.142 106.606 400.098 114.298 387.884 118.457C375.669 122.667 367.924 128.176 362.623 133.218C357.321 138.208 339.909 147.979 339.909 147.979C339.181 144.081 337.83 140.287 335.907 136.752C335.699 136.389 335.491 136.025 335.283 135.609C328.474 123.394 310.646 123.394 304.253 135.765C301.966 140.183 301.55 145.536 304.253 151.306C302.59 153.541 304.201 159.05 309.503 161.078L305.76 164.352C305.76 164.352 293.234 156.867 278.784 166.587C278.42 166.639 278.057 166.691 277.693 166.743C267.817 168.25 265.01 169.446 262.983 171.681C260.956 173.916 239.854 198.657 208.667 228.232C186.006 250.218 122.542 273.659 122.542 273.659C122.542 273.659 90.1084 314.201 93.3829 360.305C99.6721 345.283 109.34 327.039 121.866 310.407L122.178 310.667C122.178 310.667 131.534 310.251 134.653 313.318C137.771 316.384 141.721 316.956 146.659 313.837C147.907 313.058 153.832 307.808 162.044 300.323L162.304 300.479C162.304 300.479 166.566 302.558 168.541 304.17C170.517 305.781 174.415 310.875 180.132 305.001C181.64 303.442 185.59 299.076 190.632 293.41L191.047 293.826C191.047 293.826 194.426 294.866 196.297 295.905C198.22 296.997 202.014 300.427 206.536 296.269C210.902 292.215 230.654 271.372 232.057 269.865C230.186 272.256 193.126 319.919 187.097 327.871C180.86 336.031 177.585 341.177 169.581 341.437C161.576 341.697 152.896 349.961 149.674 356.095C146.451 362.228 124.309 399.235 118.644 401.938C116.721 402.614 109.808 398.56 106.845 400.587C103.882 402.614 101.959 412.125 98.8405 415.244C95.7219 418.363 90.5762 422.001 90.5762 422.001L82 442.168L84.9627 442.844L95.41 432.292L259.761 291.955C259.813 291.955 259.813 291.955 259.813 291.955C259.813 291.955 288.556 295.23 299.523 300.791C280.447 303.962 276.081 321.27 274.47 324.649C260.592 347.154 250.249 360.876 247.962 361.968C246.091 362.851 242.452 361.448 236.683 359.369C234.864 358.693 232.889 359.733 232.369 361.552C229.77 370.544 218.127 376.729 218.127 376.729L211.214 393.934L213.657 397.052C213.657 397.052 221.506 387.125 223.429 385.773C225.3 384.422 238.45 379.692 241.985 378.341C262.619 358.278 326.291 308.432 328.526 305.989C330.761 303.546 331.749 293.618 332.008 291.435C332.268 289.252 329.566 286.809 322.913 281.924C316.26 277.038 279.356 260.145 279.356 260.145C279.356 260.145 287.698 252.67 294.636 246.67C313.136 230.67 332.008 212.17 332.008 198.17C331.697 191.257 330.917 184.415 330.917 184.415M232.161 269.761C232.213 269.761 232.213 269.761 232.161 269.761V269.761Z" fill="#24A550"/>
<path d="M296.692 161.806C300.41 166.722 299.349 167.269 298.286 170C300.225 169.935 306.779 172.307 308.5 167.5C310.651 161.491 332.312 170.741 341.344 161.806C342.619 160.339 343.646 159.243 344 158.879C342.752 157.726 340.255 154.511 340.255 150.88C340.68 138.643 337.599 124.658 331.755 124.658C330.162 120.834 326.974 119.741 323.255 119.195C315.245 118.018 309.442 122.473 306.255 124.658C303.067 126.843 299.88 125.75 299.88 123.019C298.18 124.767 297.401 128.299 297.755 129.574C296.515 130.302 293.505 131.759 295.099 135.583C291.699 136.457 292.973 142.685 295.098 143.778C291.38 146.509 293.717 157.872 296.692 161.806Z" fill="#24A550"/>
</g>
<path opacity="0.6" d="M302.609 418.997C310.51 406.471 318.722 405.171 322.88 398.57C323.504 406.315 327.766 420.089 309.834 430.9C294.916 439.944 298.451 425.598 302.609 418.997Z" fill="#24A550"/>
<path opacity="0.6" d="M46.7788 156.307C67.4471 156.307 84.2021 139.552 84.2021 118.883C84.2021 98.2149 67.4471 81.46 46.7788 81.46C26.1104 81.46 9.35547 98.2149 9.35547 118.883C9.35547 139.552 26.1104 156.307 46.7788 156.307Z" fill="#24A550"/>
<path opacity="0.6" d="M446.845 228.554C456.2 209.842 451.523 205.164 442.167 205.164C428.913 205.164 446.845 177.097 428.133 167.741C404.743 158.385 371.998 181.774 353.286 219.198C337.174 251.423 338.421 297.527 377.923 309.689L390.71 326.79L395.388 401.636L390.71 415.67H400.065V345.501L413.268 310.261C430.212 304.804 453.706 289.834 460.878 261.299C470.234 223.876 446.845 228.554 446.845 228.554ZM390.71 317.434L384.68 311.353C386.604 311.717 388.631 312.028 390.71 312.236V317.434ZM395.388 340.824V312.652C396.895 312.756 398.454 312.756 400.065 312.756C402.197 312.756 404.847 312.444 407.862 311.768L395.388 340.824Z" fill="#24A550"/>
<path opacity="0.6" d="M107.02 156.411V158.594H105.253L99.2757 189.52H93.4543V267.329L87.7888 278.296V189.52H81.9674L75.9381 158.594H74.1709V156.411C74.1709 156.411 82.6431 146.795 88.2046 146.795C88.2046 143.936 88.2046 141.233 88.2046 141.233H92.9865C92.9865 141.233 92.9865 143.936 92.9865 146.795C98.548 146.795 107.02 156.411 107.02 156.411Z" fill="#24A550"/>
<path opacity="0.6" d="M239.821 161.66V58.7461H153.747L137.322 77.9775V247.838C197.407 224.916 239.821 161.66 239.821 161.66Z" fill="#24A550"/>
<path opacity="0.6" d="M419.868 79.069V58.7461H357.496L350.843 72.1041V114.205C378.807 85.0983 392.061 98.1965 408.33 87.9051C415.191 83.539 419.868 79.069 419.868 79.069Z" fill="#24A550"/>
<path opacity="0.6" d="M285.665 126.16C285.665 109.008 285.665 86.9697 285.665 86.9697H248.034C248.034 86.9697 247.67 147.419 247.67 156.255C261.964 141.753 285.665 146.951 285.665 126.16Z" fill="#24A550"/>
<path d="M79.5241 296.644C79.5241 296.644 76.8213 298.515 72.4033 300.906" stroke="#24A550" stroke-width="3" stroke-linecap="round" stroke-linejoin="round"/>
<path d="M3.63838 378.039C1.3514 382.769 0 385.524 0 385.524" stroke="#24A550" stroke-width="3" stroke-linecap="round" stroke-linejoin="round"/>
<path opacity="0.6" d="M45.5838 350.076C37.0077 356.366 31.1863 355.066 26.6123 358.341C28.2756 352.987 29.0552 342.644 43.8686 340.149C56.2911 338.07 50.1058 346.75 45.5838 350.076Z" fill="#24A550"/>
<path opacity="0.6" d="M360.355 350.648C363.369 358.861 361.03 363.175 362.642 367.489C358.795 364.994 350.791 362.031 352.194 349.713C353.286 339.473 358.743 346.334 360.355 350.648Z" fill="#24A550"/>
<path fill-rule="evenodd" clip-rule="evenodd" d="M299.581 161.253C300.007 161.963 299.777 162.885 299.066 163.311C298.511 163.644 298.098 164.354 297.835 165.235C297.712 165.645 297.641 166.029 297.602 166.311C297.582 166.451 297.571 166.562 297.565 166.634C297.563 166.648 297.562 166.661 297.561 166.672C297.563 166.69 297.564 166.714 297.567 166.744C297.576 166.844 297.597 167.007 297.64 167.221C297.728 167.648 297.909 168.274 298.282 168.996C299.017 170.417 300.546 172.312 303.805 173.811C310.225 176.738 314.236 180.223 317.604 184.619L318.737 174.079C318.826 173.255 319.565 172.659 320.389 172.748C321.213 172.836 321.809 173.576 321.72 174.4L320.161 188.901C320.093 189.532 319.636 190.052 319.019 190.199C318.402 190.347 317.759 190.091 317.413 189.56C313.739 183.923 309.887 179.88 302.558 176.54L302.554 176.538C298.693 174.762 296.663 172.396 295.617 170.374C295.101 169.374 294.836 168.482 294.701 167.823C294.634 167.493 294.598 167.221 294.58 167.021C294.571 166.921 294.566 166.839 294.563 166.777C294.561 166.746 294.561 166.719 294.56 166.698L294.56 166.67L294.56 166.66L294.56 166.655L294.56 166.653C294.56 166.652 294.56 166.651 296.06 166.651C294.561 166.581 294.561 166.581 294.561 166.581L294.561 166.577L294.562 166.572L294.562 166.557L294.565 166.514C294.567 166.478 294.571 166.431 294.576 166.372C294.586 166.254 294.603 166.092 294.631 165.895C294.686 165.505 294.784 164.967 294.96 164.376C295.295 163.255 295.999 161.653 297.523 160.738C298.233 160.312 299.155 160.543 299.581 161.253ZM296.06 166.651L294.561 166.581C294.56 166.604 294.56 166.628 294.56 166.651L296.06 166.651Z" fill="black"/>
<path fill-rule="evenodd" clip-rule="evenodd" d="M308.675 134.511C307.535 135.667 306.312 136.907 305.018 138.102C303.883 139.15 302.78 140.018 301.831 140.767C301.717 140.856 301.606 140.944 301.497 141.03C300.443 141.863 299.663 142.508 299.115 143.149C298.597 143.755 298.356 144.28 298.307 144.862C298.254 145.478 298.401 146.348 299.025 147.656C299.267 148.162 299.205 148.762 298.866 149.209C298.155 150.144 297.865 150.966 298.183 151.884C298.55 152.944 299.856 154.571 303.634 156.637C308.072 158.36 311.494 159.5 315.692 159.473C319.793 159.446 324.77 158.3 332.204 155.208C332.22 155.075 332.236 154.939 332.251 154.798C332.96 147.655 332.575 142.816 329.193 136.735C329.069 136.518 328.68 135.777 328.311 135.072L328.273 135C327.863 134.219 327.485 133.5 327.399 133.349L327.391 133.335C326.757 132.198 325.84 130.904 324.731 130.122C323.713 129.404 322.588 129.133 321.171 129.841C320.642 130.106 320.008 130.035 319.55 129.661C318.422 128.737 317.488 128.504 316.651 128.58C315.748 128.661 314.731 129.122 313.516 130.019C312.305 130.913 311.033 132.135 309.61 133.566C309.305 133.872 308.993 134.189 308.675 134.511ZM322.946 161.518C320.267 162.16 317.907 162.458 315.711 162.472C311.194 162.502 307.498 161.328 303.35 159.743C302.301 160.744 301.376 161.613 300.677 162.264C300.252 162.66 299.91 162.976 299.674 163.194C299.556 163.302 299.465 163.386 299.402 163.444L299.307 163.531C298.695 164.09 297.746 164.047 297.187 163.435C296.629 162.823 296.672 161.875 297.283 161.316L297.375 161.233C297.435 161.177 297.525 161.095 297.641 160.988C297.873 160.774 298.211 160.461 298.631 160.07C299.15 159.586 299.795 158.982 300.523 158.292C297.624 156.473 295.98 154.69 295.348 152.866C294.692 150.973 295.223 149.36 295.963 148.145C295.454 146.882 295.223 145.717 295.318 144.608C295.435 143.233 296.034 142.137 296.834 141.201C297.603 140.301 298.616 139.483 299.637 138.676C299.748 138.588 299.86 138.5 299.973 138.411C300.929 137.658 301.939 136.861 302.983 135.898M322.946 161.518C320.559 163.269 318.964 164.629 317.894 165.674C316.822 166.723 316.229 167.502 315.902 168.092C315.737 168.392 315.628 168.662 315.567 168.91C315.537 169.035 315.518 169.156 315.51 169.273C315.506 169.331 315.505 169.388 315.507 169.444C315.508 169.471 315.509 169.499 315.511 169.526C315.513 169.539 315.514 169.552 315.515 169.565L315.518 169.585L315.519 169.595C315.519 169.6 315.52 169.605 317.007 169.404L315.52 169.605C315.565 169.94 315.723 170.249 315.964 170.483C315.98 170.502 316.016 170.544 316.074 170.619C316.232 170.823 316.529 171.234 317.037 172.011C318.052 173.565 319.867 176.523 323.031 182.099C323.44 182.82 324.355 183.073 325.076 182.664C325.796 182.255 326.049 181.339 325.64 180.619C322.463 175.02 320.613 172.001 319.549 170.371C319.216 169.862 318.957 169.482 318.754 169.198C318.975 168.894 319.354 168.443 319.991 167.82C321.901 165.953 325.937 162.733 334.374 157.531C334.761 157.293 335.019 156.891 335.076 156.44L335.076 156.437C335.128 156.023 335.181 155.599 335.234 155.121L335.236 155.103C335.981 147.595 335.597 142.075 331.811 135.271L331.803 135.256C331.716 135.105 331.339 134.386 330.929 133.605L330.891 133.533C330.521 132.827 330.131 132.085 330.008 131.868C329.295 130.59 328.113 128.835 326.46 127.67C324.914 126.58 322.933 126.006 320.706 126.786C319.313 125.853 317.87 125.457 316.381 125.592C314.69 125.745 313.144 126.565 311.734 127.606C310.319 128.65 308.904 130.022 307.483 131.45C307.16 131.775 306.836 132.103 306.51 132.434C305.378 133.582 304.22 134.755 302.983 135.898M316.06 170.568C316.06 170.568 316.06 170.568 316.06 170.568V170.568Z" fill="black"/>
<path fill-rule="evenodd" clip-rule="evenodd" d="M418.742 96.7204C418.741 96.7212 418.739 96.7221 418.737 96.723L403.4 104.804C403.326 104.865 403.222 104.95 403.089 105.057C402.807 105.284 402.394 105.611 401.862 106.013C400.797 106.819 399.254 107.932 397.324 109.177C393.472 111.662 388.046 114.69 381.788 116.82C369.787 120.957 362.227 126.35 357.075 131.249L357.069 131.255C354.284 133.876 348.464 137.646 343.478 140.694C340.958 142.235 338.605 143.619 336.883 144.617C336.021 145.116 335.317 145.519 334.828 145.798C334.583 145.937 334.392 146.045 334.262 146.119L334.113 146.203L334.062 146.231C334.062 146.232 334.061 146.232 333.42 145.089L334.061 146.232C333.339 146.637 332.425 146.38 332.019 145.658C331.614 144.936 331.871 144.021 332.593 143.616L332.641 143.589L332.786 143.507C332.914 143.435 333.102 143.328 333.344 143.191C333.827 142.915 334.525 142.516 335.379 142.021C337.087 141.031 339.418 139.66 341.914 138.135C346.957 135.051 352.492 131.442 355.01 129.073C360.461 123.89 368.388 118.266 380.813 113.983L380.818 113.981C386.774 111.954 391.976 109.056 395.699 106.656C397.556 105.458 399.038 104.388 400.051 103.621C400.558 103.238 400.947 102.931 401.207 102.721C401.337 102.616 401.435 102.536 401.499 102.483C401.513 102.471 401.526 102.46 401.537 102.451C401.55 102.44 401.561 102.431 401.569 102.424L401.585 102.41L401.588 102.408C401.588 102.408 401.589 102.408 401.588 102.408C401.672 102.337 401.764 102.275 401.861 102.223L417.361 94.0571C419.579 92.9126 422.234 93.4139 423.883 95.2061L423.887 95.2105L428.778 100.57C430.773 102.778 430.649 106.211 428.428 108.234L427.247 109.364L427.23 109.379C426.202 110.335 424.839 110.82 423.455 110.82C422.554 110.82 421.49 110.847 420.662 110.967C420.437 110.999 420.258 111.035 420.121 111.069C420.052 111.514 419.993 111.944 419.959 112.314C419.958 112.326 419.957 112.337 419.956 112.348C419.953 112.368 419.951 112.387 419.948 112.407C419.748 113.702 418.747 114.744 417.464 114.958C417.453 114.959 417.441 114.961 417.43 114.963C416.302 115.124 414.479 115.33 412.646 115.316C411.728 115.309 410.775 115.247 409.888 115.085C409.182 114.957 408.454 114.753 407.802 114.421C407.243 114.482 406.409 114.72 405.304 115.215C404.002 115.798 402.474 116.669 400.829 117.771C397.538 119.976 393.883 123.034 390.764 126.355C384.201 133.345 373.886 139.469 370.975 141.133C370.97 141.135 370.965 141.138 370.961 141.141C370.956 141.143 370.952 141.146 370.947 141.148C369.554 141.906 368.36 142.641 367.209 143.349L367.093 143.421C365.916 144.145 364.763 144.851 363.533 145.48C362.494 146.011 359.843 147.758 356.653 150.223C353.487 152.67 349.89 155.747 346.949 158.891L346.945 158.896C341.734 164.417 336.403 170.305 332.373 174.816C330.359 177.071 328.67 178.98 327.486 180.325C326.893 180.997 326.427 181.529 326.109 181.892C325.95 182.074 325.828 182.213 325.746 182.307L325.622 182.449C325.622 182.449 325.622 182.449 324.491 181.464C323.36 180.478 323.36 180.478 323.36 180.478L323.487 180.333C323.569 180.239 323.692 180.098 323.852 179.916C324.172 179.55 324.64 179.017 325.234 178.342C326.423 176.992 328.116 175.078 330.136 172.817C334.175 168.297 339.524 162.388 344.761 156.839C347.848 153.539 351.579 150.354 354.818 147.85C358.034 145.365 360.867 143.473 362.167 142.809C363.276 142.242 364.332 141.597 365.52 140.866L365.652 140.784C366.791 140.083 368.041 139.314 369.5 138.52C372.428 136.846 382.362 130.92 388.577 124.302C391.851 120.815 395.68 117.61 399.159 115.279C400.898 114.114 402.577 113.149 404.077 112.477C405.533 111.825 406.986 111.371 408.218 111.407C408.493 111.415 408.761 111.499 408.991 111.649C409.277 111.834 409.748 112.01 410.426 112.134C411.088 112.255 411.857 112.31 412.668 112.316C414.267 112.328 415.901 112.149 416.958 112C416.959 111.999 416.96 111.998 416.96 111.997C416.967 111.99 416.974 111.98 416.978 111.968C417.037 111.363 417.142 110.683 417.241 110.086C417.387 109.048 418.256 108.579 418.651 108.406C419.141 108.191 419.716 108.073 420.232 107.998C421.288 107.845 422.537 107.82 423.455 107.82C424.146 107.82 424.756 107.58 425.182 107.188L426.368 106.053C426.379 106.043 426.389 106.033 426.4 106.024C427.384 105.135 427.463 103.592 426.554 102.583C426.553 102.582 426.553 102.581 426.552 102.581L421.675 97.2372C421.675 97.2368 421.674 97.2363 421.674 97.2358C420.933 96.4316 419.746 96.2053 418.742 96.7204ZM324.491 181.464L323.36 180.478C322.816 181.103 322.881 182.05 323.506 182.595C324.13 183.139 325.078 183.073 325.622 182.449L324.491 181.464ZM419.802 111.181C419.801 111.18 419.809 111.175 419.831 111.165C419.813 111.176 419.803 111.181 419.802 111.181Z" fill="black"/>
<path fill-rule="evenodd" clip-rule="evenodd" d="M271.327 165.224C275.273 164.679 279.745 164.141 284.018 164.354C288.303 164.568 292.207 165.53 295.133 167.83C295.785 168.342 296.728 168.228 297.24 167.577C297.752 166.926 297.638 165.983 296.987 165.471C293.365 162.625 288.744 161.586 284.167 161.358C279.582 161.129 274.858 161.708 270.906 162.254L270.885 162.257C261.066 163.755 257.722 164.989 255.291 167.67C255.085 167.896 254.688 168.349 254.108 169.009C248.912 174.925 229.062 197.527 201.054 224.088L201.042 224.1C189.919 234.891 168.614 246.156 149.898 254.772C140.576 259.064 131.958 262.672 125.67 265.206C122.527 266.474 119.967 267.472 118.194 268.154C117.307 268.494 116.618 268.756 116.15 268.932C115.917 269.019 115.739 269.086 115.619 269.131L115.485 269.181L115.441 269.197C115.441 269.197 115.441 269.197 115.961 270.604L115.441 269.197C115.185 269.291 114.96 269.454 114.789 269.667L115.961 270.604C114.789 269.667 114.789 269.667 114.788 269.668L114.781 269.677L114.761 269.702C114.744 269.724 114.72 269.755 114.687 269.796C114.623 269.878 114.529 269.999 114.408 270.157C114.165 270.473 113.811 270.94 113.364 271.548C112.471 272.765 111.202 274.549 109.693 276.832C106.674 281.396 102.687 287.963 98.8031 295.984C91.0452 312.004 83.6422 333.939 85.3054 357.356C85.3546 358.048 85.8728 358.617 86.5579 358.729C87.2431 358.842 87.9162 358.47 88.1848 357.83C99.5262 330.797 121.675 293.4 151.802 274.102C161.175 268.098 169.015 263.33 175.729 259.246C179.976 256.663 183.773 254.354 187.222 252.18C196.032 246.625 202.382 242.063 207.416 236.414C209.192 234.42 212.018 231.086 215.505 226.972C216.845 225.391 218.282 223.695 219.795 221.916C225.258 215.491 231.731 207.949 238.234 200.717C244.741 193.48 251.255 186.579 256.801 181.425C259.576 178.846 262.08 176.731 264.2 175.236C266.387 173.693 267.946 172.971 268.878 172.872C277.369 171.977 285.024 172.399 290.558 173.046C293.324 173.369 295.554 173.748 297.088 174.044C297.854 174.193 298.447 174.32 298.844 174.41C299.043 174.455 299.193 174.491 299.291 174.514C299.341 174.526 299.377 174.535 299.401 174.541L299.426 174.547L299.431 174.549M299.431 174.549C300.234 174.754 301.051 174.269 301.256 173.467C301.461 172.664 300.977 171.847 300.174 171.642L299.879 172.795C300.174 171.642 300.174 171.642 300.174 171.642L300.172 171.642L300.169 171.641L300.159 171.638L300.124 171.63C300.094 171.622 300.051 171.612 299.995 171.598C299.883 171.571 299.719 171.532 299.506 171.484C299.079 171.388 298.457 171.254 297.658 171.099C296.06 170.79 293.755 170.399 290.907 170.066C285.214 169.4 277.329 168.964 268.563 169.889C266.793 170.076 264.679 171.226 262.47 172.785C260.194 174.39 257.579 176.606 254.759 179.227C249.113 184.473 242.529 191.453 236.003 198.711C229.472 205.974 222.978 213.542 217.509 219.973C215.978 221.773 214.529 223.483 213.184 225.071C209.712 229.167 206.926 232.454 205.176 234.418C200.439 239.735 194.392 244.113 185.622 249.642C182.28 251.749 178.513 254.041 174.275 256.619C167.506 260.737 159.537 265.585 150.184 271.576C121.525 289.933 100.134 324.026 88.0694 350.601C88.0789 330.372 94.6018 311.543 101.503 297.292C105.318 289.414 109.235 282.964 112.195 278.486C113.675 276.248 114.915 274.505 115.782 273.324C116.216 272.734 116.556 272.284 116.787 271.984C116.821 271.94 116.852 271.899 116.881 271.862C116.974 271.827 117.083 271.786 117.207 271.739C117.681 271.561 118.377 271.297 119.27 270.954C121.056 270.267 123.631 269.263 126.792 267.989C133.111 265.441 141.776 261.814 151.152 257.497C169.831 248.898 191.584 237.452 203.125 226.259C231.25 199.585 251.198 176.87 256.354 170.998C256.924 170.349 257.313 169.905 257.513 169.685C259.135 167.897 261.404 166.739 271.327 165.224" fill="black"/>
<path fill-rule="evenodd" clip-rule="evenodd" d="M225.283 230.526C225.888 229.96 226.837 229.991 227.403 230.596C227.969 231.201 227.938 232.151 227.333 232.717L226.308 231.621L225.283 230.526ZM115.597 307.611C115.531 306.113 115.531 306.113 115.531 306.113L115.534 306.112L115.542 306.112L115.566 306.111L115.653 306.108C115.729 306.106 115.837 306.102 115.975 306.1C116.25 306.094 116.643 306.09 117.122 306.094C118.08 306.103 119.395 306.149 120.818 306.294C122.234 306.439 123.797 306.688 125.236 307.117C126.647 307.537 128.089 308.175 129.123 309.192C130.483 310.529 131.928 311.238 133.495 311.345C135.082 311.453 136.989 310.959 139.277 309.514C139.484 309.383 140.01 308.975 140.895 308.23C141.749 307.513 142.865 306.546 144.209 305.36C146.896 302.99 150.469 299.77 154.625 295.988C162.936 288.425 173.556 278.631 184.025 268.932C194.494 259.233 204.808 249.631 212.506 242.454C216.355 238.866 219.549 235.884 221.781 233.798C222.897 232.756 223.773 231.938 224.369 231.38L225.282 230.527C225.283 230.526 225.283 230.526 226.308 231.621C227.333 232.717 227.332 232.717 227.332 232.717L227.329 232.72L226.418 233.572C225.821 234.129 224.946 234.948 223.829 235.991C221.596 238.076 218.401 241.059 214.552 244.649C206.853 251.827 196.536 261.431 186.064 271.132C175.593 280.833 164.965 290.635 156.644 298.207C152.485 301.992 148.898 305.224 146.194 307.61C144.842 308.802 143.705 309.788 142.825 310.527C141.978 311.24 141.29 311.79 140.879 312.05C138.23 313.724 135.693 314.502 133.29 314.338C130.868 314.172 128.779 313.062 127.02 311.332C126.495 310.816 125.598 310.355 124.378 309.992C123.185 309.636 121.824 309.413 120.512 309.279C119.207 309.145 117.988 309.103 117.093 309.094C116.647 309.09 116.285 309.094 116.036 309.099C115.912 309.102 115.816 309.104 115.753 309.106L115.683 309.109L115.667 309.11L115.664 309.11C115.664 309.11 115.664 309.11 115.597 307.611Z" fill="black"/>
<path fill-rule="evenodd" clip-rule="evenodd" d="M220.139 247.418C220.687 246.796 221.635 246.736 222.256 247.284C222.878 247.831 222.938 248.779 222.39 249.401L221.265 248.409L220.139 247.418ZM155.064 298.771L155.074 298.776L155.107 298.793C155.137 298.807 155.182 298.829 155.24 298.858C155.356 298.916 155.526 299.001 155.736 299.109C156.157 299.324 156.738 299.627 157.378 299.979C158.688 300.699 160.14 301.565 161.011 302.276C161.212 302.44 161.446 302.655 161.756 302.94L161.775 302.957C162.081 303.239 162.441 303.569 162.838 303.9C163.625 304.559 164.624 305.281 165.815 305.737C167.034 306.203 168.444 306.386 169.995 305.968C171.525 305.556 173.065 304.594 174.625 302.992C177.515 300.022 189.478 286.599 200.674 273.97C206.282 267.644 211.711 261.502 215.738 256.941C217.751 254.661 219.414 252.776 220.574 251.461L222.388 249.403L222.39 249.401C222.391 249.4 222.39 249.401 221.265 248.409C220.139 247.418 220.14 247.417 220.139 247.418L218.324 249.477C217.165 250.791 215.502 252.676 213.489 254.955C209.463 259.515 204.035 265.656 198.429 271.98C187.197 284.65 175.302 297.995 172.475 300.899C171.177 302.233 170.086 302.837 169.215 303.071C168.364 303.3 167.605 303.21 166.887 302.935C166.143 302.65 165.439 302.165 164.762 301.598C164.426 301.318 164.112 301.031 163.805 300.749L163.751 300.699C163.473 300.443 163.179 300.173 162.907 299.951C161.804 299.051 160.137 298.072 158.822 297.35C158.15 296.98 157.542 296.663 157.102 296.438C156.881 296.325 156.703 296.235 156.578 296.173C156.516 296.142 156.467 296.118 156.433 296.102L156.395 296.082L156.384 296.077L156.38 296.075C156.38 296.075 156.38 296.075 155.722 297.423L156.38 296.075C155.636 295.712 154.737 296.021 154.374 296.766C154.011 297.51 154.32 298.408 155.064 298.771Z" fill="black"/>
<path fill-rule="evenodd" clip-rule="evenodd" d="M224.49 265.674C225.06 265.072 226.009 265.046 226.611 265.616C227.213 266.185 227.239 267.134 226.669 267.736L225.58 266.705L224.49 265.674ZM188.981 294.157C189.178 294.269 189.409 294.417 189.713 294.612L189.714 294.613C190.008 294.801 190.354 295.023 190.73 295.244C191.482 295.686 192.409 296.161 193.47 296.448C194.543 296.738 195.761 296.838 197.069 296.522C198.377 296.207 199.684 295.501 200.971 294.317L200.977 294.311C203.278 292.169 209.723 285.501 215.547 279.418C218.469 276.366 221.249 273.445 223.299 271.288C224.324 270.21 225.167 269.322 225.753 268.703L226.669 267.736C226.67 267.736 226.669 267.736 225.58 266.705C224.49 265.674 224.491 265.674 224.49 265.674L223.576 266.639C222.99 267.257 222.149 268.144 221.125 269.222C219.076 271.377 216.299 274.294 213.38 277.343C207.525 283.459 201.161 290.041 198.937 292.112C197.964 293.006 197.102 293.429 196.367 293.606C195.632 293.783 194.933 293.736 194.253 293.552C193.559 293.364 192.894 293.037 192.252 292.659C191.932 292.47 191.631 292.278 191.332 292.086L191.305 292.069C191.027 291.89 190.73 291.7 190.456 291.545L190.444 291.538C189.397 290.956 187.988 290.403 186.899 290.009C186.343 289.808 185.848 289.641 185.492 289.524C185.313 289.465 185.169 289.419 185.068 289.387C185.018 289.371 184.979 289.359 184.952 289.35L184.92 289.341L184.909 289.337L184.908 289.337C184.907 289.337 184.907 289.337 184.466 290.77L184.908 289.337C184.116 289.093 183.276 289.537 183.033 290.329C182.789 291.121 183.233 291.96 184.025 292.204C184.025 292.204 184.025 292.204 184.025 292.204L184.032 292.206L184.058 292.214L184.162 292.247C184.253 292.276 184.387 292.319 184.555 292.374C184.891 292.484 185.357 292.642 185.879 292.831C186.945 293.216 188.158 293.701 188.981 294.157Z" fill="black"/>
<path fill-rule="evenodd" clip-rule="evenodd" d="M323.693 180.004C324.442 179.649 325.336 179.969 325.691 180.717L324.335 181.36C325.691 180.717 325.691 180.718 325.691 180.718L325.692 180.719L325.693 180.722L325.696 180.728L325.704 180.746C325.711 180.761 325.72 180.78 325.731 180.804C325.752 180.852 325.781 180.918 325.817 181.003C325.888 181.173 325.985 181.416 326.098 181.726C326.323 182.347 326.609 183.242 326.873 184.37C327.4 186.624 327.837 189.822 327.494 193.635C325.769 212.803 312.449 226.287 295.488 241.129C287.416 248.192 281.951 252.493 278.49 255.035C277.452 255.798 276.593 256.403 275.898 256.877C276.819 257.303 277.963 257.833 279.278 258.446C282.845 260.108 287.672 262.375 292.708 264.795C297.742 267.214 302.993 269.791 307.407 272.071C311.78 274.331 315.443 276.355 317.219 277.659C320.536 280.095 322.969 281.993 324.539 283.584C326.06 285.125 327.134 286.731 326.916 288.557C326.899 288.703 326.878 288.886 326.854 289.102C326.698 290.466 326.394 293.136 325.902 295.829C325.617 297.388 325.263 298.994 324.826 300.385C324.407 301.718 323.849 303.074 323.051 303.946C322.833 304.185 322.368 304.591 321.801 305.072C321.198 305.584 320.381 306.261 319.382 307.081C317.381 308.721 314.626 310.95 311.323 313.615C309.951 314.722 308.483 315.905 306.935 317.153C301.031 321.913 293.956 327.616 286.52 333.665C267.728 348.953 246.709 366.385 236.449 376.361C236.303 376.503 236.129 376.613 235.939 376.686C235.248 376.951 234.193 377.342 232.939 377.809C232.574 377.944 232.193 378.086 231.799 378.232C230.041 378.887 228.013 379.645 226.039 380.402C224.062 381.16 222.151 381.913 220.622 382.558C219.857 382.881 219.2 383.172 218.685 383.419C218.141 383.679 217.84 383.851 217.726 383.934L217.71 383.945C217.396 384.165 216.662 384.898 215.625 386.052C214.638 387.152 213.49 388.503 212.394 389.823C211.299 391.14 210.264 392.417 209.501 393.365C209.12 393.839 208.807 394.23 208.59 394.502C208.481 394.638 208.397 394.745 208.339 394.817L208.254 394.926L208.253 394.927C207.967 395.288 207.532 395.498 207.072 395.497C206.612 395.496 206.178 395.284 205.895 394.922L203.452 391.803C203.122 391.382 203.041 390.816 203.241 390.319L210.154 373.115C210.286 372.786 210.53 372.515 210.842 372.349L210.845 372.348L210.865 372.337C210.883 372.327 210.912 372.311 210.951 372.29C211.03 372.246 211.148 372.18 211.301 372.091C211.608 371.914 212.054 371.649 212.6 371.301C213.694 370.606 215.178 369.587 216.737 368.3C219.9 365.69 223.173 362.137 224.346 358.083C225.102 355.441 227.967 353.925 230.617 354.905C230.925 355.016 231.225 355.124 231.518 355.23C234.009 356.13 235.994 356.847 237.591 357.275C238.478 357.513 239.177 357.643 239.726 357.674C240.271 357.705 240.572 357.634 240.734 357.559C240.734 357.559 240.735 357.558 240.735 357.558C240.748 357.55 240.819 357.508 240.958 357.395C241.112 357.27 241.309 357.093 241.551 356.853C242.036 356.373 242.649 355.697 243.388 354.82C244.863 353.067 246.78 350.579 249.072 347.405C253.642 341.075 259.661 332.075 266.567 320.879C266.72 320.545 266.909 320.051 267.146 319.431C269.009 314.555 273.863 301.855 288.104 297.351C282.696 295.461 275.366 293.886 268.712 292.709C264.458 291.957 260.542 291.376 257.689 290.984C256.263 290.788 255.104 290.64 254.302 290.54C253.902 290.49 253.59 290.452 253.38 290.427C253.274 290.415 253.194 290.405 253.141 290.399L253.08 290.392L253.077 290.392L253.075 290.392L253.071 290.391L253.066 290.391L253.062 290.39L253.061 290.39L253.026 290.386C252.998 290.383 252.959 290.378 252.909 290.372C252.808 290.359 252.665 290.34 252.482 290.312C252.117 290.256 251.591 290.165 250.931 290.025C249.612 289.746 247.75 289.268 245.543 288.472C241.131 286.88 235.322 284.009 229.715 278.885C223.739 273.452 223.381 266.607 224.798 260.826C226.204 255.093 229.387 250.191 230.861 248.154L230.866 248.148C234.503 243.171 240.009 239.382 245.385 235.775C245.64 235.604 245.895 235.433 246.15 235.262C251.35 231.776 256.385 228.402 260.047 224.146C260.587 223.518 261.534 223.447 262.162 223.987C262.79 224.527 262.861 225.474 262.321 226.102C258.384 230.679 253.032 234.264 247.933 237.679C247.64 237.875 247.348 238.071 247.057 238.266C241.609 241.922 236.565 245.435 233.29 249.916C231.904 251.831 228.982 256.361 227.712 261.54C226.453 266.674 226.848 272.225 231.734 276.667L231.737 276.669C236.993 281.473 242.436 284.162 246.561 285.65C248.622 286.394 250.35 286.836 251.553 287.09C252.154 287.218 252.624 287.298 252.937 287.346C253.094 287.37 253.211 287.386 253.287 287.396C253.325 287.401 253.352 287.404 253.368 287.406L253.384 287.408L253.386 287.408L253.401 287.409L253.231 288.9C253.401 287.409 253.401 287.409 253.401 287.409L253.403 287.41L253.407 287.41L253.487 287.419C253.521 287.423 253.566 287.428 253.619 287.435C253.654 287.439 253.692 287.443 253.734 287.448C253.949 287.474 254.266 287.512 254.673 287.563C255.486 287.664 256.658 287.814 258.098 288.012C260.977 288.408 264.933 288.994 269.235 289.755C277.763 291.264 287.908 293.501 293.62 296.398C294.198 296.691 294.522 297.323 294.424 297.963C294.326 298.604 293.827 299.109 293.187 299.215C277.254 301.864 272.202 314.773 270.006 320.386C269.705 321.156 269.457 321.789 269.243 322.239C269.219 322.287 269.194 322.335 269.165 322.38C262.212 333.657 256.137 342.745 251.504 349.161C249.189 352.367 247.224 354.921 245.683 356.752C244.914 357.666 244.236 358.417 243.662 358.984C243.132 359.509 242.564 360.01 242.027 360.266L242.021 360.269C241.246 360.635 240.391 360.717 239.554 360.669C238.714 360.621 237.792 360.435 236.814 360.173C235.085 359.709 232.968 358.944 230.515 358.058C230.213 357.948 229.905 357.837 229.593 357.725L229.579 357.72C228.593 357.354 227.513 357.916 227.23 358.909L227.228 358.913C225.802 363.85 221.954 367.885 218.647 370.614C216.97 371.998 215.381 373.088 214.211 373.832C213.625 374.205 213.141 374.493 212.801 374.69C212.78 374.702 212.76 374.713 212.74 374.725L206.347 390.634L207.087 391.579C207.112 391.548 207.138 391.516 207.163 391.484C207.932 390.529 208.979 389.239 210.087 387.906C211.193 386.574 212.368 385.19 213.393 384.048C214.365 382.966 215.33 381.953 215.978 381.496C216.331 381.242 216.846 380.973 217.389 380.713C217.965 380.437 218.67 380.126 219.456 379.794C221.03 379.13 222.978 378.363 224.964 377.601C226.953 376.838 228.993 376.076 230.753 375.421C231.152 375.272 231.537 375.129 231.903 374.993C232.99 374.589 233.913 374.246 234.581 373.993C245.033 363.873 266 346.491 284.627 331.338C292.069 325.284 299.15 319.576 305.055 314.816C306.602 313.569 308.068 312.386 309.439 311.28C312.743 308.615 315.489 306.393 317.479 304.761C318.475 303.945 319.276 303.28 319.86 302.784C320.153 302.536 320.386 302.335 320.559 302.18C320.646 302.102 320.714 302.04 320.764 301.993C320.814 301.946 320.835 301.924 320.837 301.921C321.158 301.571 321.561 300.77 321.964 299.486C322.349 298.261 322.677 296.791 322.951 295.29C323.422 292.708 323.714 290.152 323.871 288.776C323.897 288.552 323.919 288.359 323.937 288.203C323.98 287.846 323.832 287.139 322.404 285.691C321.024 284.294 318.779 282.527 315.443 280.077C313.892 278.938 310.448 277.019 306.03 274.737C301.653 272.476 296.431 269.913 291.408 267.499C286.386 265.085 281.571 262.824 278.011 261.165C276.231 260.336 274.765 259.658 273.745 259.187C273.235 258.952 272.836 258.768 272.564 258.644L272.157 258.457L272.152 258.455L272.15 258.454C272.15 258.454 272.15 258.454 272.774 257.09L272.15 258.454C271.632 258.217 271.293 257.706 271.275 257.136C271.258 256.567 271.564 256.038 272.065 255.769L272.066 255.768C272.066 255.768 272.067 255.767 272.067 255.767C272.067 255.767 272.068 255.767 272.068 255.767L272.069 255.766L272.105 255.746C272.141 255.726 272.2 255.692 272.284 255.642C272.452 255.543 272.719 255.38 273.094 255.139C273.844 254.656 275.025 253.858 276.714 252.618C280.092 250.136 285.489 245.892 293.512 238.872C310.551 223.961 322.902 211.198 324.506 193.366C324.815 189.928 324.42 187.056 323.952 185.052C323.718 184.051 323.466 183.27 323.277 182.748C323.182 182.487 323.104 182.291 323.051 182.165C323.024 182.102 323.004 182.056 322.992 182.029L322.98 182.002C322.626 181.254 322.945 180.359 323.693 180.004Z" fill="black"/>
<path fill-rule="evenodd" clip-rule="evenodd" d="M224.396 265.785C224.904 265.131 225.846 265.012 226.501 265.521C227.155 266.029 227.273 266.972 226.764 267.626L225.82 266.892C226.764 267.626 226.765 267.625 226.764 267.626L225.084 269.788C224.01 271.17 222.469 273.153 220.6 275.558C216.863 280.368 211.815 286.866 206.572 293.62C196.083 307.13 184.822 321.652 181.708 325.726C181.255 326.319 180.814 326.9 180.383 327.469C177.906 330.738 175.752 333.581 173.424 335.676C170.59 338.226 167.44 339.738 163.049 339.88C159.508 339.995 155.646 341.908 152.191 344.678C148.756 347.432 145.923 350.877 144.421 353.736C142.779 356.86 136.411 367.687 129.756 378.057C126.426 383.246 123.005 388.35 120.053 392.334C118.579 394.325 117.205 396.058 116.005 397.391C114.859 398.665 113.717 399.755 112.708 400.236C112.66 400.259 112.61 400.28 112.56 400.297C112.002 400.493 111.415 400.477 110.959 400.426C110.474 400.372 109.953 400.256 109.443 400.122C108.863 399.969 108.171 399.757 107.481 399.546C107.021 399.404 106.562 399.264 106.137 399.141C104.987 398.809 103.907 398.549 102.971 398.477C102.014 398.403 101.437 398.545 101.111 398.769C100.695 399.053 100.161 399.738 99.5289 400.937C98.9221 402.089 98.3325 403.499 97.7076 405.02C97.6609 405.134 97.6139 405.248 97.5668 405.363C96.9958 406.755 96.3957 408.218 95.757 409.526C95.0755 410.921 94.2825 412.286 93.3201 413.249C91.6925 414.877 89.5663 416.612 87.8768 417.922C87.0262 418.581 86.2747 419.141 85.7354 419.537C85.5269 419.69 85.3499 419.819 85.2109 419.919L77.5012 438.049L77.9023 438.14L87.7631 428.181C87.7925 428.152 87.8231 428.123 87.8549 428.096L252.206 287.759C252.836 287.221 253.782 287.295 254.32 287.925C254.858 288.555 254.784 289.502 254.154 290.04L89.8507 430.337L79.4475 440.843C79.0827 441.212 78.5536 441.366 78.0481 441.25L75.0854 440.575C74.6523 440.476 74.2852 440.19 74.0831 439.795C73.881 439.399 73.8647 438.934 74.0386 438.525L82.6148 418.358C82.7237 418.102 82.9018 417.881 83.1291 417.72L83.1317 417.719L83.183 417.682C83.2034 417.668 83.2296 417.649 83.2611 417.626C83.2862 417.608 83.3147 417.588 83.3465 417.565C83.4897 417.462 83.699 417.311 83.9603 417.119C84.4833 416.735 85.2132 416.191 86.0388 415.551C87.7018 414.262 89.7078 412.619 91.1988 411.128C91.7957 410.531 92.4125 409.538 93.0613 408.209C93.655 406.993 94.219 405.619 94.7996 404.204C94.8438 404.096 94.8882 403.988 94.9326 403.88C95.5487 402.38 96.1903 400.838 96.8747 399.538C97.5343 398.287 98.3513 397.022 99.4168 396.293C100.572 395.503 101.971 395.391 103.202 395.486C104.457 395.583 105.78 395.915 106.969 396.259C107.516 396.417 108.011 396.569 108.475 396.712C109.094 396.903 109.655 397.076 110.205 397.22C110.66 397.34 111.019 397.414 111.291 397.444C111.416 397.458 111.498 397.46 111.546 397.459C111.981 397.201 112.726 396.551 113.775 395.385C114.884 394.152 116.194 392.503 117.643 390.548C120.536 386.642 123.915 381.604 127.231 376.437C133.869 366.094 140.183 355.351 141.765 352.341C143.485 349.067 146.604 345.313 150.315 342.337C154.007 339.377 158.487 337.027 162.951 336.882C166.564 336.765 169.054 335.573 171.417 333.446C173.515 331.558 175.466 328.986 177.961 325.697C178.397 325.122 178.851 324.524 179.324 323.904C182.447 319.818 193.718 305.285 204.202 291.78C209.445 285.026 214.494 278.527 218.231 273.717C220.1 271.312 221.641 269.329 222.715 267.947L224.389 265.794L224.394 265.787L224.396 265.785C224.396 265.784 224.396 265.785 225.344 266.521L224.396 265.785Z" fill="black"/>
<path fill-rule="evenodd" clip-rule="evenodd" d="M262.406 172.974C262.972 172.37 263.921 172.339 264.526 172.905C265.131 173.472 265.161 174.421 264.595 175.026L263.5 174L262.406 172.974ZM262.406 172.974C262.406 172.974 262.406 172.974 263.5 174C264.595 175.026 264.595 175.025 264.595 175.026L264.528 175.097L264.329 175.311C264.154 175.499 263.896 175.776 263.567 176.132C262.909 176.844 261.965 177.87 260.822 179.128C258.536 181.644 255.457 185.08 252.285 188.768C249.11 192.458 245.853 196.385 243.204 199.885C240.515 203.438 238.577 206.394 237.898 208.19C237.604 208.965 236.739 209.356 235.964 209.063C235.189 208.77 234.798 207.904 235.092 207.129C235.946 204.871 238.15 201.592 240.812 198.075C243.514 194.503 246.817 190.522 250.01 186.811C253.206 183.097 256.304 179.639 258.602 177.11C259.751 175.846 260.701 174.813 261.364 174.095C261.696 173.737 261.956 173.457 262.133 173.267L262.335 173.05L262.406 172.974Z" fill="black"/>
<path fill-rule="evenodd" clip-rule="evenodd" d="M292.494 204.823L283.847 210.738C283.606 210.903 283.322 210.994 283.03 211L283 209.5C283.03 211 283.031 211 283.03 211L282.862 211.003C282.753 211.005 282.592 211.008 282.384 211.011C281.969 211.017 281.368 211.025 280.62 211.032C279.125 211.047 277.044 211.057 274.7 211.042C270.027 211.01 264.254 210.875 259.995 210.452C258.117 210.267 255.804 209.704 253.453 209.132C253.166 209.063 252.879 208.993 252.592 208.923C249.882 208.269 247.101 207.637 244.526 207.427C241.931 207.215 239.761 207.453 238.162 208.341C236.657 209.177 235.435 210.716 234.961 213.666C234.311 217.773 235.597 220.656 238.223 222.508C240.971 224.446 245.412 225.409 251.302 224.98C257.231 224.547 264.992 222.948 271.545 221.459C273.472 221.021 275.252 220.603 276.853 220.227C277.994 219.959 279.044 219.712 279.992 219.495C281.108 219.239 282.065 219.028 282.8 218.888C283.167 218.817 283.497 218.761 283.774 218.725C284.003 218.696 284.347 218.658 284.661 218.699C284.766 218.712 284.87 218.737 284.97 218.773C294.465 222.142 299.28 221.697 301.325 221.132L301.33 221.13C301.716 221.025 301.987 220.628 301.911 220.186C301.911 220.185 301.91 220.184 301.91 220.184L300.716 213.485L300.716 213.482C300.461 212.037 301.052 210.589 302.231 209.732C302.666 209.391 302.694 208.822 302.403 208.477C302.402 208.477 302.402 208.476 302.401 208.476L301.47 207.389C301.448 207.364 301.428 207.339 301.409 207.313C301.281 207.142 301.046 207.032 300.78 207.068C300.768 207.069 300.757 207.071 300.745 207.072L296.483 207.54C295.967 207.596 295.459 207.382 295.139 206.974L293.631 205.051L293.628 205.047C293.374 204.72 292.881 204.611 292.494 204.823ZM282.524 208.008L290.847 202.316C290.871 202.299 290.896 202.283 290.922 202.268C292.609 201.255 294.799 201.668 295.994 203.203C295.995 203.203 295.996 203.204 295.996 203.205L296.985 204.467L300.403 204.092C301.672 203.929 302.968 204.427 303.775 205.469L304.687 206.533C306.159 208.264 305.774 210.805 304.037 212.128C304.025 212.137 304.013 212.146 304 212.155C303.741 212.34 303.615 212.647 303.669 212.959C303.67 212.959 303.67 212.96 303.67 212.961L304.866 219.67C305.205 221.616 304.021 223.505 302.122 224.024C299.306 224.802 293.901 225.086 284.228 221.692C284.207 221.695 284.183 221.697 284.156 221.701C283.967 221.725 283.705 221.769 283.364 221.834C282.686 221.964 281.774 222.164 280.662 222.419C279.764 222.625 278.722 222.87 277.58 223.138C275.952 223.52 274.12 223.95 272.21 224.384C265.665 225.871 257.702 227.521 251.521 227.972C245.3 228.426 240.048 227.466 236.494 224.96C232.818 222.368 231.192 218.286 231.998 213.195L231.998 213.191C232.59 209.515 234.246 207.085 236.705 205.719C239.072 204.404 241.953 204.207 244.77 204.437C247.607 204.668 250.599 205.356 253.296 206.007C253.581 206.076 253.862 206.144 254.139 206.211C256.548 206.796 258.638 207.304 260.291 207.467L260.292 207.467C264.402 207.875 270.056 208.01 274.72 208.042C277.044 208.057 279.108 208.047 280.591 208.033C281.333 208.025 281.928 208.017 282.338 208.011C282.405 208.01 282.467 208.009 282.524 208.008Z" fill="black"/>
<path fill-rule="evenodd" clip-rule="evenodd" d="M299.946 160.059C299.947 160.06 299.948 160.06 299.178 161.348L299.948 160.06C300.659 160.485 300.891 161.406 300.466 162.117C300.042 162.828 299.123 163.06 298.412 162.637C298.412 162.637 298.411 162.637 298.411 162.637L298.411 162.637L298.411 162.637L298.41 162.636L298.395 162.628C298.378 162.618 298.35 162.602 298.311 162.58C298.232 162.537 298.107 162.47 297.94 162.387C297.606 162.219 297.101 161.983 296.447 161.727C295.137 161.212 293.238 160.617 290.911 160.308C286.281 159.692 279.917 160.202 273.04 164.828C272.352 165.29 271.42 165.108 270.958 164.42C270.495 163.733 270.678 162.801 271.365 162.338C278.937 157.245 286.062 156.637 291.306 157.334C293.917 157.681 296.053 158.349 297.544 158.934C298.29 159.227 298.877 159.5 299.284 159.704C299.487 159.806 299.646 159.891 299.757 159.952C299.813 159.983 299.857 160.008 299.889 160.026L299.928 160.048L299.94 160.056L299.944 160.058L299.946 160.059Z" fill="black"/>
<path fill-rule="evenodd" clip-rule="evenodd" d="M273.875 194.477C274.438 195.085 274.402 196.034 273.795 196.597L259.553 209.799C258.945 210.362 257.996 210.326 257.433 209.719C256.87 209.111 256.906 208.162 257.513 207.599L271.755 194.397C272.363 193.834 273.312 193.87 273.875 194.477Z" fill="black"/>
<path fill-rule="evenodd" clip-rule="evenodd" d="M160.46 48.8711C160.46 48.0427 161.132 47.3711 161.96 47.3711H248.086C248.914 47.3711 249.586 48.0427 249.586 48.8711V151.785C249.586 152.614 248.914 153.285 248.086 153.285C247.257 153.285 246.586 152.614 246.586 151.785V50.3711H163.46V227.515C163.46 228.344 162.788 229.015 161.96 229.015C161.132 229.015 160.46 228.344 160.46 227.515V48.8711Z" fill="black"/>
<path fill-rule="evenodd" clip-rule="evenodd" d="M162.933 47.7305C163.563 48.2685 163.637 49.2153 163.099 49.8453L147.034 68.6559V237.911C147.034 238.739 146.363 239.411 145.534 239.411C144.706 239.411 144.034 238.739 144.034 237.911V68.1025C144.034 67.7454 144.162 67.4 144.394 67.1284L160.818 47.897C161.356 47.267 162.303 47.1925 162.933 47.7305Z" fill="black"/>
<path fill-rule="evenodd" clip-rule="evenodd" d="M361.922 48.8711C361.922 48.0427 362.594 47.3711 363.422 47.3711H425.847C426.675 47.3711 427.347 48.0427 427.347 48.8711V81.1487C427.347 81.9771 426.675 82.6487 425.847 82.6487C425.018 82.6487 424.347 81.9771 424.347 81.1487V50.3711H364.922V102.459C364.922 103.288 364.251 103.959 363.422 103.959C362.594 103.959 361.922 103.288 361.922 102.459V48.8711Z" fill="black"/>
<path fill-rule="evenodd" clip-rule="evenodd" d="M364.212 47.5958C364.916 48.0318 365.134 48.9563 364.698 49.6607L353.02 68.5294V114.986C353.02 115.814 352.348 116.486 351.52 116.486C350.691 116.486 350.02 115.814 350.02 114.986V68.1027C350.02 67.8238 350.097 67.5505 350.244 67.3133L362.147 48.0819C362.583 47.3775 363.507 47.1598 364.212 47.5958Z" fill="black"/>
<path fill-rule="evenodd" clip-rule="evenodd" d="M246.585 77.666C246.585 76.8376 247.257 76.166 248.085 76.166H295.072C295.9 76.166 296.572 76.8376 296.572 77.666V100C296.572 100.828 295.9 101.5 295.072 101.5C294.244 101.5 293.572 100.828 293.572 100V79.166H248.085C247.257 79.166 246.585 78.4944 246.585 77.666Z" fill="black"/>
<path fill-rule="evenodd" clip-rule="evenodd" d="M92.5777 141.233C92.5777 140.405 93.2493 139.733 94.0777 139.733H98.8596C99.688 139.733 100.36 140.405 100.36 141.233V145.46C101.646 145.733 102.93 146.316 104.116 146.997C105.797 147.962 107.451 149.229 108.892 150.464C110.339 151.703 111.603 152.937 112.505 153.86C112.956 154.322 113.318 154.709 113.569 154.981C113.695 155.117 113.793 155.224 113.86 155.299C113.893 155.336 113.919 155.365 113.937 155.386L113.958 155.409L113.966 155.418C113.966 155.418 113.967 155.419 112.841 156.411L113.967 155.419C114.208 155.693 114.341 156.046 114.341 156.411V158.594C114.341 159.422 113.67 160.094 112.841 160.094H112.312L106.57 189.804C106.433 190.51 105.815 191.02 105.097 191.02H100.775V267.329C100.775 267.569 100.718 267.805 100.608 268.018L94.9426 278.985C94.625 279.599 93.9281 279.917 93.2557 279.754C92.5833 279.59 92.1099 278.988 92.1099 278.296V191.02H87.7885C87.0698 191.02 86.4521 190.51 86.3158 189.804L80.5733 160.094H80.0439C79.2155 160.094 78.5439 159.422 78.5439 158.594V156.411C78.5439 156.046 78.6771 155.693 78.9185 155.419L80.0439 156.411C78.9185 155.419 78.9183 155.419 78.9185 155.419L78.9272 155.409L78.9482 155.386C78.9661 155.365 78.9921 155.336 79.0257 155.299C79.0929 155.224 79.1907 155.117 79.3163 154.98C79.5673 154.708 79.93 154.322 80.382 153.86C81.2841 152.937 82.5504 151.702 84.0008 150.462C85.4456 149.228 87.1055 147.961 88.794 146.995C89.9886 146.312 91.2819 145.73 92.5777 145.459V141.233ZM95.5777 142.733V146.795C95.5777 147.623 94.9061 148.295 94.0777 148.295C93.0768 148.295 91.7791 148.744 90.2833 149.599C88.8191 150.437 87.3181 151.574 85.9497 152.743C84.5868 153.908 83.3875 155.077 82.5273 155.957C82.1116 156.382 81.7772 156.738 81.5439 156.99V157.094H81.8112C82.5298 157.094 83.1475 157.603 83.2839 158.309L89.0263 188.02H93.6099C94.4383 188.02 95.1099 188.691 95.1099 189.52V272.124L97.7754 266.965V189.52C97.7754 188.691 98.4469 188.02 99.2754 188.02H103.859L109.601 158.309C109.738 157.603 110.355 157.094 111.074 157.094H111.341V156.99C111.108 156.737 110.774 156.382 110.358 155.956C109.499 155.076 108.301 153.907 106.941 152.742C105.575 151.572 104.079 150.435 102.621 149.598C101.131 148.742 99.8448 148.295 98.8596 148.295C98.0311 148.295 97.3596 147.623 97.3596 146.795V142.733H95.5777Z" fill="black"/>
<path fill-rule="evenodd" clip-rule="evenodd" d="M80.3105 158.594C80.3105 157.765 80.9821 157.094 81.8105 157.094H111.073C111.902 157.094 112.573 157.765 112.573 158.594C112.573 159.422 111.902 160.094 111.073 160.094H81.8105C80.9821 160.094 80.3105 159.422 80.3105 158.594Z" fill="black"/>
<path fill-rule="evenodd" clip-rule="evenodd" d="M396.673 170.454C383.464 179.644 370.752 194.638 361.489 213.164C353.55 229.043 349.908 248.292 353.058 264.985C356.194 281.601 366.035 295.659 385.174 301.552L385.186 301.555C387.236 302.206 389.457 302.712 391.773 303.175C393.715 303.533 395.696 303.837 397.72 304.04L397.725 304.04C399.193 304.192 400.717 304.294 402.323 304.398C403.825 304.449 405.352 304.5 406.927 304.5C408.919 304.5 411.453 304.207 414.382 303.552C416.081 303.14 417.853 302.683 419.718 302.078L419.722 302.077C436.428 296.713 459.385 282.086 466.336 254.18L466.336 254.179C470.973 235.632 467.306 228.281 463.378 225.344C461.343 223.823 459.019 223.297 457.143 223.17C456.211 223.107 455.412 223.144 454.852 223.198C454.573 223.224 454.356 223.255 454.216 223.277C454.156 223.287 454.113 223.295 454.088 223.3C453.666 223.411 453.203 223.336 452.829 223.066C452.232 222.636 452.035 221.837 452.364 221.179C454.675 216.557 456.084 212.87 456.778 209.953C457.476 207.023 457.422 204.996 456.961 203.612C456.522 202.296 455.672 201.427 454.401 200.849C453.071 200.245 451.269 199.96 449.028 199.96C447.099 199.96 445.514 199.442 444.346 198.315C443.208 197.218 442.661 195.728 442.396 194.181C442.131 192.631 442.122 190.858 442.198 189.024C442.245 187.882 442.329 186.651 442.414 185.401C442.465 184.658 442.516 183.909 442.56 183.168C442.803 179.084 442.855 174.929 441.778 171.253C440.728 167.672 438.603 164.536 434.379 162.406C423.359 158.028 409.894 161.257 396.673 170.454ZM394.96 167.992C408.614 158.493 423.192 154.7 435.551 159.644C435.59 159.659 435.628 159.676 435.665 159.695C440.759 162.242 443.396 166.111 444.656 170.409C445.893 174.627 445.799 179.243 445.555 183.346C445.507 184.149 445.454 184.923 445.403 185.673C445.32 186.886 445.241 188.037 445.195 189.148C445.122 190.931 445.143 192.447 445.353 193.675C445.564 194.906 445.936 195.682 446.428 196.156C446.889 196.601 447.643 196.96 449.028 196.96C451.464 196.96 453.755 197.26 455.642 198.118C457.587 199.002 459.076 200.471 459.807 202.663C460.515 204.788 460.461 207.439 459.697 210.648C459.062 213.314 457.916 216.453 456.2 220.137C456.557 220.138 456.941 220.149 457.345 220.177C459.577 220.328 462.525 220.961 465.175 222.942C470.615 227.009 473.966 236.03 469.247 254.905C461.957 284.172 437.93 299.38 420.643 304.932C420.641 304.932 420.64 304.933 420.639 304.933L420.181 303.505L420.643 304.932C420.643 304.932 420.643 304.932 420.643 304.932C418.666 305.573 416.805 306.051 415.076 306.47L415.051 306.476C411.957 307.17 409.193 307.5 406.927 307.5C405.286 307.5 403.702 307.447 402.197 307.395C402.189 307.395 402.18 307.394 402.172 307.394C402.165 307.394 402.159 307.393 402.152 307.393C400.544 307.289 398.958 307.184 397.419 307.024C395.29 306.811 393.221 306.493 391.218 306.124L391.195 306.119C388.839 305.648 386.492 305.116 384.285 304.417C384.287 304.418 384.289 304.418 384.291 304.419L384.732 302.985L384.279 304.415C384.281 304.416 384.283 304.416 384.285 304.417C363.925 298.146 353.419 283.072 350.11 265.541C346.816 248.086 350.632 228.17 358.806 211.823C368.254 192.926 381.271 177.514 394.96 167.992Z" fill="black"/>
<path fill-rule="evenodd" clip-rule="evenodd" d="M383.561 302.066C383.938 301.534 384.616 301.307 385.238 301.504C387.308 302.16 389.531 302.716 391.804 303.12C392.107 303.174 392.385 303.319 392.602 303.536L396.123 307.057V305.533C396.123 305.108 396.303 304.703 396.618 304.419C396.934 304.134 397.355 303.997 397.777 304.041C399.252 304.193 400.784 304.295 402.397 304.399C403.187 304.45 403.801 305.105 403.801 305.896V326.772L413.397 304.421C413.588 303.976 413.982 303.651 414.455 303.547C416.054 303.198 417.823 302.693 419.718 302.079C420.266 301.901 420.867 302.053 421.265 302.469C421.663 302.885 421.788 303.492 421.586 304.032L408.479 339.017V408.914C408.479 409.743 407.807 410.414 406.979 410.414H397.623C397.141 410.414 396.688 410.183 396.406 409.791C396.124 409.4 396.047 408.897 396.2 408.44L400.786 394.683L396.154 320.576L383.585 303.834C383.194 303.313 383.184 302.598 383.561 302.066ZM388.609 305.53L398.823 319.133C398.998 319.368 399.102 319.648 399.12 319.941L403.798 394.787C403.81 394.979 403.785 395.172 403.724 395.355L399.704 407.414H405.479V338.746C405.479 338.566 405.511 338.388 405.574 338.219L417.711 305.822C417.078 305.998 416.458 306.16 415.853 306.305L403.679 334.66C403.398 335.314 402.696 335.68 401.999 335.537C401.301 335.394 400.801 334.78 400.801 334.068V307.301C400.238 307.262 399.678 307.221 399.123 307.176V310.678C399.123 311.285 398.757 311.832 398.197 312.064C397.636 312.296 396.991 312.168 396.562 311.739L390.812 305.989C390.071 305.85 389.336 305.697 388.609 305.53Z" fill="black"/>
<path fill-rule="evenodd" clip-rule="evenodd" d="M86.682 107.172C82.79 87.712 63.8802 75.09 44.4227 78.9815C24.963 82.8734 12.3409 101.783 16.2325 121.241C20.1244 140.7 39.0342 153.323 58.4918 149.431C59.3041 149.269 60.0943 149.795 60.2568 150.608C60.4193 151.42 59.8925 152.21 59.0801 152.373C37.9958 156.59 17.5072 142.911 13.2907 121.829C9.07385 100.745 22.7521 80.2562 43.8343 76.0397C64.9186 71.8229 85.4073 85.5011 89.6237 106.583C90.7049 111.989 90.5964 117.393 89.516 122.471C89.3436 123.281 88.547 123.798 87.7367 123.626C86.9264 123.453 86.4093 122.657 86.5817 121.847C87.5805 117.152 87.6798 112.161 86.682 107.172Z" fill="black"/>
<path fill-rule="evenodd" clip-rule="evenodd" d="M214.404 23.8252C215.233 23.8252 215.904 24.4968 215.904 25.3252V48.7148C215.904 49.5432 215.233 50.2148 214.404 50.2148C213.576 50.2148 212.904 49.5432 212.904 48.7148V25.3252C212.904 24.4968 213.576 23.8252 214.404 23.8252Z" fill="black"/>
<path fill-rule="evenodd" clip-rule="evenodd" d="M212.125 40.918C212.125 40.0895 212.797 39.418 213.625 39.418H215.184C216.013 39.418 216.684 40.0895 216.684 40.918C216.684 41.7464 216.013 42.418 215.184 42.418H213.625C212.797 42.418 212.125 41.7464 212.125 40.918Z" fill="black"/>
<path fill-rule="evenodd" clip-rule="evenodd" d="M212.125 33.1211C212.125 32.2927 212.797 31.6211 213.625 31.6211H215.184C216.013 31.6211 216.684 32.2927 216.684 33.1211C216.684 33.9495 216.013 34.6211 215.184 34.6211H213.625C212.797 34.6211 212.125 33.9495 212.125 33.1211Z" fill="black"/>
<path fill-rule="evenodd" clip-rule="evenodd" d="M328.28 393.423C328.907 393.577 329.365 394.116 329.417 394.76C329.482 395.568 329.597 396.486 329.722 397.493C330.156 400.97 330.721 405.5 329.831 410.176C328.646 416.391 324.951 422.886 315.651 428.494C311.883 430.778 308.937 431.814 306.711 431.578C305.524 431.452 304.528 430.962 303.804 430.127C303.107 429.323 302.765 428.317 302.625 427.314C302.347 425.34 302.791 422.953 303.499 420.743C304.219 418.5 305.272 416.255 306.383 414.505C310.462 408.038 314.638 404.457 318.28 401.679C318.877 401.223 319.45 400.796 319.999 400.385C322.855 398.252 325.064 396.602 326.653 394.08C326.997 393.534 327.652 393.269 328.28 393.423ZM320.099 404.064C316.621 406.718 312.741 410.048 308.92 416.107L308.917 416.111C307.95 417.634 307.002 419.645 306.356 421.659C305.699 423.708 305.411 425.584 305.595 426.897C305.685 427.538 305.872 427.932 306.071 428.162C306.244 428.362 306.512 428.54 307.027 428.595C308.203 428.719 310.409 428.164 314.098 425.927L314.101 425.925C322.733 420.721 325.872 414.925 326.884 409.614C327.641 405.639 327.239 401.938 326.832 398.627C325.291 400.193 323.519 401.511 321.692 402.869C321.164 403.262 320.632 403.658 320.099 404.064Z" fill="black"/>
<path fill-rule="evenodd" clip-rule="evenodd" d="M305.88 428.108C306.647 428.422 307.014 429.298 306.7 430.064C305.336 433.399 303.027 434.84 300.999 435.377C300.015 435.638 299.128 435.68 298.486 435.659C298.163 435.648 297.897 435.621 297.704 435.595C297.607 435.582 297.528 435.569 297.47 435.559C297.44 435.554 297.416 435.549 297.397 435.545L297.372 435.54L297.362 435.538L297.358 435.537L297.357 435.537C297.356 435.537 297.355 435.537 297.667 434.09L297.355 435.537C296.545 435.362 296.03 434.564 296.205 433.754C296.379 432.948 297.171 432.434 297.977 432.602L297.993 432.605C298.013 432.608 298.051 432.615 298.103 432.622C298.21 432.636 298.376 432.654 298.586 432.661C299.012 432.675 299.596 432.646 300.23 432.478C301.438 432.158 302.949 431.312 303.923 428.929C304.237 428.162 305.113 427.794 305.88 428.108Z" fill="black"/>
<path fill-rule="evenodd" clip-rule="evenodd" d="M54.7235 340.333C54.0927 340.003 52.5812 339.765 49.5222 340.277C42.5032 341.459 38.9915 344.444 36.9825 347.623C35.6253 349.77 34.932 351.99 34.3673 354.085C35.6091 353.613 36.895 353.27 38.1868 352.926C38.6567 352.801 39.1273 352.675 39.5969 352.544C42.5944 351.701 46.0088 350.517 50.1018 347.516C51.1264 346.762 52.2696 345.684 53.2148 344.528C54.1835 343.344 54.826 342.221 55.0273 341.384C55.1241 340.981 55.0917 340.755 55.0539 340.648C55.0294 340.579 54.9744 340.464 54.7235 340.333ZM55.5369 346.428C54.4391 347.77 53.114 349.024 51.8781 349.933L51.8763 349.935C47.3932 353.222 43.609 354.533 40.4083 355.432C39.8519 355.588 39.3257 355.73 38.8255 355.865C36.382 356.523 34.5604 357.014 32.8908 358.209C32.3669 358.584 31.662 358.583 31.1396 358.205C30.6172 357.828 30.394 357.16 30.5852 356.544C30.7542 356 30.9217 355.358 31.1074 354.646C31.7433 352.209 32.5925 348.953 34.4466 346.02C36.9464 342.065 41.2311 338.631 49.0249 337.318L49.0264 337.318C52.1782 336.79 54.5518 336.858 56.1137 337.674C56.9592 338.117 57.5775 338.786 57.8822 339.648C58.1738 340.472 58.1268 341.325 57.9443 342.084C57.5867 343.573 56.6115 345.114 55.5369 346.428Z" fill="black"/>
<path fill-rule="evenodd" clip-rule="evenodd" d="M63.5099 337.545C63.5106 337.546 63.5113 337.546 62.6839 338.797L63.5113 337.546C64.2023 338.003 64.3921 338.934 63.9351 339.625C63.4809 340.311 62.5589 340.503 61.8692 340.057C61.8686 340.056 61.8678 340.056 61.8669 340.055C61.8594 340.051 61.8414 340.04 61.8137 340.025C61.7579 339.994 61.6651 339.946 61.5412 339.893C61.2902 339.785 60.9329 339.666 60.5127 339.618C59.7325 339.529 58.6183 339.662 57.4122 340.889C56.8312 341.479 55.8815 341.487 55.2909 340.906C54.7003 340.325 54.6925 339.375 55.2734 338.785C57.1858 336.841 59.2422 336.454 60.8529 336.638C61.6283 336.726 62.2715 336.942 62.7222 337.135C62.9492 337.232 63.1324 337.326 63.2651 337.399C63.3316 337.436 63.3859 337.468 63.4271 337.493C63.4477 337.505 63.4651 337.516 63.4791 337.525L63.4978 337.537L63.5052 337.542L63.5084 337.544L63.5099 337.545Z" fill="black"/>
<path fill-rule="evenodd" clip-rule="evenodd" d="M357.6 341.961C357.274 342.305 356.762 343.353 356.493 345.869L356.492 345.88L356.492 345.88C355.835 351.651 357.378 355.037 359.377 357.285C360.602 358.661 361.985 359.627 363.349 360.466C363.292 359.524 363.306 358.583 363.32 357.649C363.325 357.272 363.331 356.897 363.332 356.524C363.338 353.982 363.179 351.045 361.755 347.166C361.398 346.211 360.815 345.085 360.128 344.094C359.419 343.071 358.706 342.345 358.142 342.022C357.873 341.868 357.741 341.865 357.721 341.866L357.721 341.866C357.716 341.867 357.716 341.867 357.711 341.869C357.703 341.873 357.664 341.893 357.6 341.961ZM362.594 342.385C363.417 343.572 364.119 344.92 364.567 346.121L364.57 346.129L364.57 346.129C366.161 350.461 366.339 353.786 366.332 356.531C366.331 356.981 366.326 357.404 366.321 357.806C366.297 359.921 366.28 361.423 366.854 362.961C367.081 363.567 366.893 364.251 366.388 364.656C365.883 365.061 365.176 365.097 364.633 364.744C364.263 364.504 363.815 364.242 363.315 363.948C361.529 362.9 359.078 361.462 357.136 359.279C354.524 356.343 352.766 352.09 353.511 345.545C353.789 342.945 354.367 341.012 355.421 339.899C356.001 339.286 356.731 338.916 357.556 338.871C358.339 338.828 359.05 339.085 359.632 339.418C360.771 340.07 361.792 341.227 362.594 342.385Z" fill="black"/>
<path fill-rule="evenodd" clip-rule="evenodd" d="M358.951 336.29C359.569 335.751 359.64 334.813 359.107 334.187C358.57 333.556 357.623 333.48 356.992 334.017L357.964 335.159C356.992 334.017 356.992 334.017 356.991 334.018L356.99 334.019L356.987 334.022L356.98 334.027L356.965 334.041C356.953 334.051 356.94 334.063 356.924 334.078C356.892 334.107 356.851 334.145 356.804 334.192C356.71 334.286 356.587 334.417 356.452 334.582C356.183 334.91 355.848 335.393 355.587 336.016C355.041 337.32 354.876 339.126 356.04 341.155C356.452 341.874 357.369 342.122 358.087 341.71C358.806 341.298 359.054 340.381 358.642 339.662C357.987 338.521 358.133 337.703 358.354 337.174C358.477 336.881 358.639 336.646 358.771 336.485C358.836 336.406 358.89 336.349 358.922 336.317C358.937 336.302 358.947 336.293 358.951 336.29Z" fill="black"/>
<path fill-rule="evenodd" clip-rule="evenodd" d="M302.37 117.887C302.185 118.012 302.005 118.133 301.832 118.248C300.064 119.427 298.118 119.84 296.473 119.383C295.877 119.217 295.338 118.938 294.887 118.562C294.824 118.734 294.766 118.91 294.713 119.088C294.566 119.584 294.476 120.052 294.44 120.437C294.421 120.629 294.418 120.787 294.423 120.908C294.428 121.028 294.441 121.083 294.442 121.087C294.442 121.088 294.442 121.088 294.442 121.088L294.765 122.219L293.744 122.802C293.672 122.843 293.6 122.884 293.529 122.924C292.912 123.272 292.328 123.603 291.932 124.11C291.741 124.355 291.62 124.618 291.584 124.931C291.546 125.25 291.585 125.725 291.879 126.409L292.572 128.028L290.864 128.455C290.555 128.532 290.369 128.697 290.23 128.998C290.068 129.349 289.984 129.883 290.043 130.539C290.102 131.184 290.29 131.833 290.547 132.348C290.824 132.901 291.085 133.116 291.17 133.158L293.398 134.273L291.371 135.721C290.96 136.014 290.553 136.672 290.341 137.885C290.134 139.065 290.154 140.546 290.373 142.133C290.816 145.358 292.007 148.568 293.183 150.079C294.921 152.314 295.839 153.895 295.934 155.407C295.984 156.203 295.8 156.868 295.58 157.443C295.475 157.716 295.353 157.991 295.242 158.242L295.237 158.254C295.119 158.518 295.005 158.775 294.892 159.057L292.107 157.943C292.241 157.607 292.375 157.307 292.488 157.051L292.495 157.036C292.614 156.767 292.705 156.561 292.778 156.37C292.917 156.008 292.952 155.798 292.94 155.594C292.909 155.106 292.577 154.187 290.815 151.921C289.191 149.833 287.882 146.043 287.401 142.542C287.157 140.767 287.108 138.954 287.386 137.368C287.556 136.397 287.867 135.415 288.403 134.581C288.192 134.292 288.013 133.988 287.864 133.69C287.434 132.83 287.147 131.816 287.056 130.811C286.965 129.817 287.057 128.713 287.507 127.739C287.774 127.162 288.165 126.64 288.688 126.237C288.57 125.666 288.542 125.114 288.604 124.585C288.713 123.643 289.092 122.874 289.567 122.265C290.121 121.555 290.842 121.033 291.422 120.675C291.426 120.498 291.437 120.322 291.453 120.153C291.51 119.554 291.641 118.895 291.836 118.237C292.216 116.953 292.895 115.483 293.939 114.439L296.5 111.879V115.5C296.5 116.026 296.751 116.346 297.276 116.492C297.882 116.661 298.935 116.574 300.168 115.752C300.349 115.631 300.542 115.5 300.747 115.362C303.834 113.272 309.53 109.418 317.212 110.515C320.591 110.998 324.055 112.002 325.987 115.596C327.536 115.901 328.787 116.91 329.75 118.199C330.9 119.738 331.765 121.826 332.408 124.15C333.698 128.816 334.203 134.852 333.999 140.553L331.001 140.446C331.197 134.947 330.701 129.234 329.517 124.95C328.922 122.799 328.181 121.112 327.347 119.995C326.522 118.891 325.737 118.5 325 118.5H324.011L323.621 117.591C322.447 114.852 320.167 113.967 316.788 113.485C310.288 112.557 305.479 115.794 302.37 117.887Z" fill="black"/>
</g>
<defs>
<clipPath id="clip0_3648_2898">
<rect width="470" height="470" fill="white"/>
</clipPath>
</defs>
</svg>
