<svg width="16" height="16" viewBox="0 0 16 16" fill="currentColor" xmlns="http://www.w3.org/2000/svg">
<path fill-rule="evenodd" clip-rule="evenodd" d="M13.5001 7.99971V8.37971L14.4451 9.24471C14.6196 9.39765 14.7354 9.60648 14.7728 9.83543C14.8102 10.0644 14.7668 10.2992 14.6501 10.4997L13.5101 12.4997C13.4224 12.6516 13.2964 12.7777 13.1445 12.8655C12.9927 12.9532 12.8205 12.9995 12.6451 12.9997C12.5365 13.0005 12.4284 12.9837 12.3251 12.9497L11.1151 12.5397C10.9036 12.6791 10.6832 12.8044 10.4551 12.9147L10.2001 14.1747C10.1544 14.4049 10.0292 14.6117 9.84635 14.7589C9.66354 14.906 9.43478 14.9842 9.20013 14.9797H6.84013C6.60548 14.9842 6.37672 14.906 6.1939 14.7589C6.01108 14.6117 5.88585 14.4049 5.84013 14.1747L5.58513 12.9147C5.35871 12.8044 5.1399 12.6791 4.93013 12.5397L3.71513 12.9497C3.61189 12.9837 3.5038 13.0005 3.39513 12.9997C3.21976 12.9995 3.04753 12.9532 2.89571 12.8655C2.74388 12.7777 2.61781 12.6516 2.53013 12.4997L1.35013 10.4997C1.22807 10.2973 1.1817 10.0581 1.21923 9.82469C1.25675 9.59128 1.37576 9.37871 1.55513 9.22472L2.50013 8.38472V7.99971V7.61971L1.55513 6.75471C1.38069 6.60178 1.26485 6.39295 1.22745 6.164C1.19005 5.93504 1.23342 5.70021 1.35013 5.49971L2.53013 3.49972C2.61781 3.34785 2.74388 3.22171 2.89571 3.13395C3.04753 3.04619 3.21976 2.99989 3.39513 2.99971C3.50271 2.9924 3.61077 3.00253 3.71513 3.02972L4.90513 3.45972C5.11661 3.32029 5.33709 3.19502 5.56513 3.08472L5.82013 1.82472C5.86585 1.59452 5.99108 1.38774 6.1739 1.24057C6.35672 1.0934 6.58548 1.01522 6.82013 1.01971H9.16013C9.39478 1.01522 9.62354 1.0934 9.80635 1.24057C9.98917 1.38774 10.1144 1.59452 10.1601 1.82472L10.4151 3.08472C10.6415 3.19504 10.8604 3.32032 11.0701 3.45972L12.2851 3.04972C12.3884 3.01577 12.4965 2.99888 12.6051 2.99971C12.7805 2.99989 12.9527 3.04619 13.1045 3.13395C13.2564 3.22171 13.3824 3.34785 13.4701 3.49972L14.6501 5.49971C14.7739 5.70051 14.8228 5.9386 14.788 6.17192C14.7532 6.40523 14.6371 6.61874 14.4601 6.77471L13.5001 7.61471V7.99971ZM10.8901 11.4197L12.6051 11.9997L13.7851 9.99971L12.4251 8.76472C12.5176 8.24714 12.5176 7.71729 12.4251 7.19971L13.7851 5.99971L12.6051 3.99972L10.8851 4.55972C10.4823 4.22429 10.0259 3.95893 9.53513 3.77472L9.18013 1.99971H6.82013L6.46513 3.79472C5.97043 3.97384 5.51159 4.23966 5.11013 4.57972L3.39513 3.99972L2.21513 5.99971L3.57513 7.23471C3.48267 7.75229 3.48267 8.28214 3.57513 8.79972L2.21513 9.99971L3.39513 11.9997L5.11513 11.4397C5.51798 11.7751 5.97434 12.0405 6.46513 12.2247L6.82013 13.9997H9.18013L9.53513 12.2047C10.0298 12.0256 10.4887 11.7598 10.8901 11.4197ZM6.33341 10.4942C6.82676 10.8238 7.40678 10.9998 8.00012 10.9998C8.3952 11.0038 8.78711 10.9289 9.1529 10.7796C9.51869 10.6302 9.851 10.4094 10.1304 10.13C10.4098 9.85064 10.6306 9.51832 10.7799 9.15254C10.9293 8.78675 11.0041 8.39484 11.0001 7.99976C11.0001 7.40641 10.8242 6.82639 10.4945 6.33305C10.1649 5.8397 9.69635 5.45518 9.14817 5.22812C8.59999 5.00106 7.9968 4.94165 7.41485 5.0574C6.83291 5.17316 6.29836 5.45888 5.8788 5.87844C5.45925 6.29799 5.17352 6.83254 5.05777 7.41449C4.94201 7.99643 5.00142 8.59963 5.22848 9.14781C5.45555 9.69599 5.84007 10.1645 6.33341 10.4942ZM7.22753 6.13945C7.47297 6.04112 7.7358 5.9936 8.00012 5.99976C8.26445 5.9936 8.52728 6.04112 8.77271 6.13945C9.01815 6.23778 9.24109 6.38487 9.42805 6.57183C9.61501 6.75879 9.7621 6.98173 9.86043 7.22716C9.95876 7.4726 10.0063 7.73543 10.0001 7.99976C10.0063 8.26408 9.95876 8.52691 9.86043 8.77235C9.7621 9.01778 9.61501 9.24072 9.42805 9.42768C9.24109 9.61464 9.01815 9.76173 8.77271 9.86006C8.52728 9.95839 8.26445 10.0059 8.00012 9.99976C7.7358 10.0059 7.47297 9.95839 7.22753 9.86006C6.9821 9.76173 6.75916 9.61464 6.5722 9.42768C6.38524 9.24072 6.23815 9.01778 6.13982 8.77235C6.04149 8.52691 5.99397 8.26408 6.00012 7.99976C5.99397 7.73543 6.04149 7.4726 6.13982 7.22716C6.23815 6.98173 6.38524 6.75879 6.5722 6.57183C6.75916 6.38487 6.9821 6.23778 7.22753 6.13945Z"/>
</svg>
