<svg width="16" height="16" viewBox="0 0 16 16" fill="currentColor" xmlns="http://www.w3.org/2000/svg">
<path d="M7.01142 7.94471C6.5456 7.94471 6.13221 8.3581 6.13221 8.82392V13.0002H9.97875V8.82392C9.97875 8.3581 9.56536 7.94471 9.09954 7.94471H7.01142ZM5.0332 8.82392C5.0332 7.75113 5.93863 6.8457 7.01142 6.8457H9.09954C10.1723 6.8457 11.0778 7.75113 11.0778 8.82392V13.5497C11.0778 13.8531 10.8317 14.0992 10.5283 14.0992H5.58271C5.27922 14.0992 5.0332 13.8531 5.0332 13.5497V8.82392Z"/>
<path d="M8.00072 2.9994C7.45445 2.9994 7.01161 3.44224 7.01161 3.98851C7.01161 4.53478 7.45445 4.97762 8.00072 4.97762C8.54699 4.97762 8.98983 4.53478 8.98983 3.98851C8.98983 3.44224 8.54699 2.9994 8.00072 2.9994ZM5.9126 3.98851C5.9126 2.83527 6.84748 1.90039 8.00072 1.90039C9.15395 1.90039 10.0888 2.83527 10.0888 3.98851C10.0888 5.14175 9.15395 6.07663 8.00072 6.07663C6.84748 6.07663 5.9126 5.14175 5.9126 3.98851Z"/>
<path d="M2.61539 8.82411C2.20544 8.82411 1.84608 9.17842 1.84608 9.70332V13.0003H3.38469C3.68818 13.0003 3.9342 13.2464 3.9342 13.5499C3.9342 13.8533 3.68818 14.0994 3.38469 14.0994H1.29658C0.993092 14.0994 0.74707 13.8533 0.74707 13.5499V9.70332C0.74707 8.6896 1.48672 7.7251 2.61539 7.7251H3.38469C3.68818 7.7251 3.9342 7.97112 3.9342 8.2746C3.9342 8.57809 3.68818 8.82411 3.38469 8.82411H2.61539Z"/>
<path d="M3.49429 4.31825C3.06942 4.31825 2.72499 4.66268 2.72499 5.08756C2.72499 5.51243 3.06942 5.85686 3.49429 5.85686C3.91917 5.85686 4.2636 5.51243 4.2636 5.08756C4.2636 4.66268 3.91917 4.31825 3.49429 4.31825ZM1.62598 5.08756C1.62598 4.05571 2.46245 3.21924 3.49429 3.21924C4.52614 3.21924 5.36261 4.05571 5.36261 5.08756C5.36261 6.1194 4.52614 6.95587 3.49429 6.95587C2.46245 6.95587 1.62598 6.1194 1.62598 5.08756Z"/>
<path d="M12.0669 8.2746C12.0669 7.97112 12.3129 7.7251 12.6164 7.7251H13.3857C14.5144 7.7251 15.254 8.6896 15.254 9.70332V13.5499C15.254 13.8533 15.008 14.0994 14.7045 14.0994H12.6164C12.3129 14.0994 12.0669 13.8533 12.0669 13.5499C12.0669 13.2464 12.3129 13.0003 12.6164 13.0003H14.155V9.70332C14.155 9.17842 13.7956 8.82411 13.3857 8.82411H12.6164C12.3129 8.82411 12.0669 8.57809 12.0669 8.2746Z"/>
<path d="M12.5065 4.31825C12.0816 4.31825 11.7372 4.66268 11.7372 5.08756C11.7372 5.51243 12.0816 5.85686 12.5065 5.85686C12.9314 5.85686 13.2758 5.51243 13.2758 5.08756C13.2758 4.66268 12.9314 4.31825 12.5065 4.31825ZM10.6382 5.08756C10.6382 4.05571 11.4747 3.21924 12.5065 3.21924C13.5383 3.21924 14.3748 4.05571 14.3748 5.08756C14.3748 6.1194 13.5383 6.95587 12.5065 6.95587C11.4747 6.95587 10.6382 6.1194 10.6382 5.08756Z"/>
</svg>
