<svg width="16" height="16" viewBox="0 0 16 16" fill="currentColor" xmlns="http://www.w3.org/2000/svg">
<path d="M5.76083 2.4275C6.35469 1.83363 7.16015 1.5 8 1.5C8.83985 1.5 9.64531 1.83363 10.2392 2.4275C10.833 3.02136 11.1667 3.82681 11.1667 4.66667C11.1667 5.50652 10.833 6.31197 10.2392 6.90584C9.64531 7.4997 8.83985 7.83333 8 7.83333C7.16015 7.83333 6.35469 7.4997 5.76083 6.90584C5.16696 6.31197 4.83333 5.50652 4.83333 4.66667C4.83333 3.82681 5.16696 3.02136 5.76083 2.4275ZM8 2.5C7.42536 2.5 6.87426 2.72827 6.46794 3.1346C6.06161 3.54093 5.83333 4.09203 5.83333 4.66667C5.83333 5.2413 6.06161 5.7924 6.46794 6.19873C6.87426 6.60506 7.42536 6.83333 8 6.83333C8.57464 6.83333 9.12574 6.60506 9.53206 6.19873C9.93839 5.7924 10.1667 5.2413 10.1667 4.66667C10.1667 4.09203 9.93839 3.54093 9.53206 3.1346C9.12574 2.72827 8.57464 2.5 8 2.5ZM6.66667 10.5C6.09203 10.5 5.54093 10.7283 5.1346 11.1346C4.72827 11.5409 4.5 12.092 4.5 12.6667V14C4.5 14.2761 4.27614 14.5 4 14.5C3.72386 14.5 3.5 14.2761 3.5 14V12.6667C3.5 11.8268 3.83363 11.0214 4.4275 10.4275C5.02136 9.83363 5.82681 9.5 6.66667 9.5H7.66667C7.94281 9.5 8.16667 9.72386 8.16667 10C8.16667 10.2761 7.94281 10.5 7.66667 10.5H6.66667ZM10.2322 10.2322C10.7011 9.76339 11.337 9.5 12 9.5C12.663 9.5 13.2989 9.76339 13.7678 10.2322C14.2366 10.7011 14.5 11.337 14.5 12C14.5 12.4938 14.3539 12.9726 14.0856 13.3785L15.0202 14.3131C15.2154 14.5084 15.2154 14.825 15.0202 15.0202C14.8249 15.2155 14.5083 15.2155 14.3131 15.0202L13.3785 14.0856C12.9726 14.3539 12.4938 14.5 12 14.5C11.337 14.5 10.7011 14.2366 10.2322 13.7678C9.76339 13.2989 9.5 12.663 9.5 12C9.5 11.337 9.76339 10.7011 10.2322 10.2322ZM12 10.5C11.6022 10.5 11.2206 10.658 10.9393 10.9393C10.658 11.2206 10.5 11.6022 10.5 12C10.5 12.3978 10.658 12.7794 10.9393 13.0607C11.2206 13.342 11.6022 13.5 12 13.5C12.3978 13.5 12.7794 13.342 13.0607 13.0607C13.342 12.7794 13.5 12.3978 13.5 12C13.5 11.6022 13.342 11.2206 13.0607 10.9393C12.7794 10.658 12.3978 10.5 12 10.5Z"/>
</svg>
